<mxfile host="www.draw.io" modified="2023-05-31T08:22:02.129Z" agent="Mozilla/5.0 (Windows NT 10.0; Win64; x64) AppleWebKit/537.36 (KHTML, like Gecko) Chrome/113.0.0.0 Safari/537.36 Edg/113.0.1774.57" etag="JL1docECCmh-aDZoGYV0" version="21.3.6" type="device">
  <diagram name="Sivu-1" id="QYOOcOOhuvQIoj5bzhgW">
    <mxGraphModel dx="1379" dy="796" grid="1" gridSize="10" guides="1" tooltips="1" connect="1" arrows="1" fold="1" page="1" pageScale="1" pageWidth="827" pageHeight="1169" math="0" shadow="0">
      <root>
        <mxCell id="0" />
        <mxCell id="1" parent="0" />
        <mxCell id="DEsEWaqyKg0AzU0tmRKH-1" value="Etusivu" style="rounded=0;whiteSpace=wrap;html=1;" vertex="1" parent="1">
          <mxGeometry x="330" y="40" width="150" height="90" as="geometry" />
        </mxCell>
        <mxCell id="DEsEWaqyKg0AzU0tmRKH-2" value="harjoitteet&lt;br&gt;" style="rounded=0;whiteSpace=wrap;html=1;" vertex="1" parent="1">
          <mxGeometry x="210" y="180" width="120" height="60" as="geometry" />
        </mxCell>
        <mxCell id="DEsEWaqyKg0AzU0tmRKH-3" value="päiväkirja" style="rounded=0;whiteSpace=wrap;html=1;" vertex="1" parent="1">
          <mxGeometry x="480" y="180" width="120" height="60" as="geometry" />
        </mxCell>
        <mxCell id="DEsEWaqyKg0AzU0tmRKH-5" value="" style="endArrow=classic;startArrow=classic;html=1;rounded=0;entryX=0;entryY=1;entryDx=0;entryDy=0;exitX=1;exitY=0;exitDx=0;exitDy=0;" edge="1" parent="1" source="DEsEWaqyKg0AzU0tmRKH-2" target="DEsEWaqyKg0AzU0tmRKH-1">
          <mxGeometry width="50" height="50" relative="1" as="geometry">
            <mxPoint x="270" y="180" as="sourcePoint" />
            <mxPoint x="320" y="130" as="targetPoint" />
          </mxGeometry>
        </mxCell>
        <mxCell id="DEsEWaqyKg0AzU0tmRKH-6" value="" style="endArrow=classic;startArrow=classic;html=1;rounded=0;entryX=1;entryY=1;entryDx=0;entryDy=0;exitX=0;exitY=0;exitDx=0;exitDy=0;" edge="1" parent="1" source="DEsEWaqyKg0AzU0tmRKH-3" target="DEsEWaqyKg0AzU0tmRKH-1">
          <mxGeometry width="50" height="50" relative="1" as="geometry">
            <mxPoint x="490" y="190" as="sourcePoint" />
            <mxPoint x="540" y="140" as="targetPoint" />
          </mxGeometry>
        </mxCell>
        <mxCell id="DEsEWaqyKg0AzU0tmRKH-7" value="äänitteet" style="rounded=0;whiteSpace=wrap;html=1;" vertex="1" parent="1">
          <mxGeometry x="210" y="280" width="120" height="60" as="geometry" />
        </mxCell>
        <mxCell id="DEsEWaqyKg0AzU0tmRKH-8" value="" style="endArrow=classic;html=1;rounded=0;exitX=0.5;exitY=1;exitDx=0;exitDy=0;entryX=0.5;entryY=0;entryDx=0;entryDy=0;" edge="1" parent="1" source="DEsEWaqyKg0AzU0tmRKH-2" target="DEsEWaqyKg0AzU0tmRKH-7">
          <mxGeometry width="50" height="50" relative="1" as="geometry">
            <mxPoint x="260" y="280" as="sourcePoint" />
            <mxPoint x="400" y="370" as="targetPoint" />
          </mxGeometry>
        </mxCell>
        <mxCell id="DEsEWaqyKg0AzU0tmRKH-23" value="sulje sovellus" style="rounded=0;whiteSpace=wrap;html=1;" vertex="1" parent="1">
          <mxGeometry x="590" y="55" width="120" height="60" as="geometry" />
        </mxCell>
        <mxCell id="DEsEWaqyKg0AzU0tmRKH-24" value="" style="endArrow=classic;html=1;rounded=0;entryX=0;entryY=0.5;entryDx=0;entryDy=0;" edge="1" parent="1" source="DEsEWaqyKg0AzU0tmRKH-1" target="DEsEWaqyKg0AzU0tmRKH-23">
          <mxGeometry width="50" height="50" relative="1" as="geometry">
            <mxPoint x="480" y="135" as="sourcePoint" />
            <mxPoint x="550.7106781186548" y="85" as="targetPoint" />
          </mxGeometry>
        </mxCell>
        <mxCell id="DEsEWaqyKg0AzU0tmRKH-29" value="" style="edgeStyle=orthogonalEdgeStyle;rounded=0;orthogonalLoop=1;jettySize=auto;html=1;" edge="1" parent="1" source="DEsEWaqyKg0AzU0tmRKH-25" target="DEsEWaqyKg0AzU0tmRKH-26">
          <mxGeometry relative="1" as="geometry" />
        </mxCell>
        <mxCell id="DEsEWaqyKg0AzU0tmRKH-25" value="valitse päivä&amp;nbsp;&lt;br&gt;(merkki jos päivällä merkintä)" style="rounded=0;whiteSpace=wrap;html=1;" vertex="1" parent="1">
          <mxGeometry x="480" y="280" width="120" height="60" as="geometry" />
        </mxCell>
        <mxCell id="DEsEWaqyKg0AzU0tmRKH-26" value="kirjaa/lue merkintä" style="rounded=0;whiteSpace=wrap;html=1;" vertex="1" parent="1">
          <mxGeometry x="480" y="380" width="120" height="60" as="geometry" />
        </mxCell>
        <mxCell id="DEsEWaqyKg0AzU0tmRKH-27" value="" style="endArrow=classic;html=1;rounded=0;entryX=0.5;entryY=0;entryDx=0;entryDy=0;exitX=0.5;exitY=1;exitDx=0;exitDy=0;" edge="1" parent="1" source="DEsEWaqyKg0AzU0tmRKH-3" target="DEsEWaqyKg0AzU0tmRKH-25">
          <mxGeometry width="50" height="50" relative="1" as="geometry">
            <mxPoint x="670" y="340" as="sourcePoint" />
            <mxPoint x="720" y="290" as="targetPoint" />
          </mxGeometry>
        </mxCell>
        <mxCell id="DEsEWaqyKg0AzU0tmRKH-28" value="" style="endArrow=classic;html=1;rounded=0;entryX=0.5;entryY=0;entryDx=0;entryDy=0;exitX=0.5;exitY=1;exitDx=0;exitDy=0;" edge="1" parent="1" source="DEsEWaqyKg0AzU0tmRKH-25" target="DEsEWaqyKg0AzU0tmRKH-26">
          <mxGeometry width="50" height="50" relative="1" as="geometry">
            <mxPoint x="534" y="341" as="sourcePoint" />
            <mxPoint x="750" y="360" as="targetPoint" />
          </mxGeometry>
        </mxCell>
        <mxCell id="DEsEWaqyKg0AzU0tmRKH-30" value="paniikkinappulapeli :D&lt;br&gt;" style="rounded=0;whiteSpace=wrap;html=1;" vertex="1" parent="1">
          <mxGeometry x="80" y="55" width="120" height="60" as="geometry" />
        </mxCell>
        <mxCell id="DEsEWaqyKg0AzU0tmRKH-31" value="" style="endArrow=classic;startArrow=classic;html=1;rounded=0;exitX=1;exitY=0.5;exitDx=0;exitDy=0;entryX=0;entryY=0.5;entryDx=0;entryDy=0;" edge="1" parent="1" source="DEsEWaqyKg0AzU0tmRKH-30" target="DEsEWaqyKg0AzU0tmRKH-1">
          <mxGeometry width="50" height="50" relative="1" as="geometry">
            <mxPoint x="240" y="140" as="sourcePoint" />
            <mxPoint x="290" y="90" as="targetPoint" />
          </mxGeometry>
        </mxCell>
      </root>
    </mxGraphModel>
  </diagram>
</mxfile>
